<?xml version="1.0" encoding="UTF-8"?><svg id="im" xmlns="http://www.w3.org/2000/svg" viewBox="0 0 1024 1024"><defs><style>.cls-1{opacity:.5;}.cls-2{fill:#808285;}.cls-2,.cls-3,.cls-4,.cls-5,.cls-6,.cls-7{stroke-width:0px;}.cls-3{fill:#e6e7e8;}.cls-8{fill:#f7941d;stroke:#da8319;stroke-width:3px;}.cls-8,.cls-9{stroke-miterlimit:10;}.cls-8,.cls-10{stroke-linecap:round;}.cls-4,.cls-10{fill:#939598;}.cls-9{fill:#231f20;stroke:#fff;stroke-width:2px;}.cls-5{fill:#2e3192;}.cls-6{fill:#f3fafb;}.cls-10{stroke:#808285;stroke-linejoin:round;}.cls-7{fill:#292974;}</style></defs><path class="cls-4" d="M605.0867,611.8363c-11.0801-68.9902-22.3398-89.4302-78.77-92.6001l-.8198-41.4302-.0601-.1797-9.5601-30.0103-9.4902-29.7998c-21.6597-3.0801-44.1629-15.2244-45.4529-32.3948,1-.6699,3.6906-1.4568,3.6906-1.4568l-3.7392,1.473,18.1514,63.3684.0605.2603,11.6196,29.6797.21.5303,2.3203,93.7397-97.8501,10.2104c4.2197,6.8999,9.0298,13.3999,14.3799,19.4199,0,.0098.0098.0098.02.02.0103.0098.02.02.0298.0298.0103.0098.0205.02.0303.0303,1.8901,1.9097,3.9399,3.8896,6.2197,6.0098l158.6304-17.7598-.9502,42.8198c11.4702-5.8403,22.0103-13.25,31.3301-21.96ZM528.3767,569.3461l-1.0601-27.1099c30-1,37.0396,10.2305,43.2998,22.7002l-42.2397,4.4097Z"/><polygon class="cls-4" points="448.4894 451.37 515.8976 448.6191 573.8293 446.247 574.7843 483.5917 449.4338 488.7157 448.4894 451.37"/><path class="cls-2" d="M573.3429,446.767l.9287,36.3452-48.876,1.9985-34.7202,1.4175-40.7549,1.6675-.9194-36.3457,30.0762-1.2261,36.8403-1.5063,57.4253-2.3506M574.3166,445.7265l-58.4399,2.3921-36.8403,1.5063-31.0596,1.2661.9697,38.3452,41.77-1.709,34.7202-1.4175,49.8599-2.0386-.98-38.3447h0Z"/><path class="cls-10" d="M460.8994,385.4308c38.1151-16.6187,89.2733-10.4176,119.4028,8.4889-8.2305,18.0898-44.9256,27.9967-73.9158,23.8966-21.6597-3.0801-44.2114-15.2082-45.5015-32.3786"/><circle class="cls-9" cx="440.8098" cy="426.5732" r="10"/><circle class="cls-9" cx="412.6659" cy="466.1991" r="10"/><circle class="cls-9" cx="406.968" cy="536.9904" r="10"/><circle class="cls-9" cx="488.2918" cy="624.3573" r="10"/><circle class="cls-9" cx="575.486" cy="425.7962" r="10"/><circle class="cls-9" cx="604.6227" cy="466.7602" r="10"/><circle class="cls-9" cx="613.9896" cy="509.0192" r="10"/><circle class="cls-9" cx="610.8817" cy="548.2135" r="10"/><g class="cls-1"><path class="cls-8" d="M301.0739,218.375c29.1895,61.9911,59.1347,124.6772,88.3242,186.6683l59.2759-43.2217c-49.1991-47.8132-98.3982-95.6264-147.5973-143.4396"/><polygon class="cls-3" points="507.3429 675.1552 574.7873 662.7958 573.1115 854.8339 507.3429 675.1552"/><path class="cls-6" d="M572.7668,665.1996l-.8608,98.6221-.6987,79.9927-61.1704-167.1196,62.73-11.4951M576.8088,660.3925l-72.1587,13.2227c23.4551,64.0786,46.9106,128.1606,70.3652,192.2393.5977-68.4878,1.1958-136.9741,1.7935-205.4619h0ZM575.0153,865.8544c-.0005.0293-.0005.0601-.001.0894.127.3154.2534.6309.3799.9463-.1265-.3462-.2524-.6895-.3789-1.0356h0Z"/><polygon class="cls-3" points="381.1252 609.5527 432.839 654.578 281.6525 773.0009 381.1252 609.5527"/><path class="cls-6" d="M381.6007,612.6181l48.0986,41.8779-140.6182,110.145,63.6328-104.5576,28.8867-47.4653M380.6501,606.4867c-35.4751,58.29-70.9507,116.5825-106.4263,174.8726,53.9189-42.2339,107.8359-84.4663,161.7544-126.7002l-55.3281-48.1724h0ZM274.2238,781.3593c-.0229.0181-.0479.0376-.0708.0557-.1675.2959-.335.5913-.5029.8872.1914-.3149.3823-.6279.5737-.9429h0Z"/><polygon class="cls-3" points="163.9113 494.1073 353.7189 469.9706 350.7609 538.4745 163.9113 494.1073"/><path class="cls-6" d="M351.6188,472.2533l-2.752,63.7158-94.2285-22.3745-79.5601-18.8916,64.2148-8.1655,112.3257-14.2842M355.82,467.6869c-67.6914,8.6079-135.3848,17.2163-203.0757,25.8242,66.6372,15.8228,133.272,31.6455,199.9097,47.4683l3.166-73.2925h0ZM152.6559,493.4902c-.3359.0532-.6714.1069-1.0068.1602.3657-.0464.7295-.0928,1.0952-.1392-.0288-.0068-.0601-.0142-.0884-.021h0Z"/><polygon class="cls-3" points="521.8175 347.7275 606.6496 175.4345 587.9445 365.8564 521.8175 347.7275"/><path class="cls-6" d="M603.5841,186.1896l-7.9639,81.0686-9.4341,96.042-61.5054-16.8613,37.7832-76.7368,41.1201-83.5125M609.8239,163.5824c-.0361.3667-.0718.731-.1079,1.0977.0132-.0261.0269-.0537.0396-.0801.0225-.3394.0454-.6782.0684-1.0176h0ZM609.716,164.6801c-30.2544,61.4458-60.5078,122.8906-90.7627,184.3364l70.75,19.3955c6.6709-67.9097,13.3418-135.822,20.0127-203.7319h0Z"/><polygon class="cls-3" points="646.1427 416.7216 833.7384 375.6239 673.1994 479.7255 646.1427 416.7216"/><path class="cls-6" d="M823.4201,379.9321l-104.1494,67.5352-45.1694,29.2896-25.165-58.5991,98.3247-21.541,76.1592-16.6846M844.9845,370.7157c-.3091.2007-.6152.3989-.9243.5996.0283-.0063.0571-.0127.0859-.019.2798-.1934.5586-.3872.8384-.5806h0ZM844.0602,371.3154c-66.9038,14.6572-133.8071,29.314-200.7104,43.9712l28.9478,67.4072c57.2534-37.1255,114.5093-74.2534,171.7627-111.3784h0Z"/><polygon class="cls-3" points="637.3273 617.3759 669.716 556.9404 818.8107 677.9833 637.3273 617.3759"/><path class="cls-6" d="M670.3351,560.0185l73.3887,59.5806,65.2856,53.0029-168.7993-56.3726,30.125-56.2109M669.0968,553.8608l-34.6528,64.6602c64.7227,21.6152,129.4482,43.231,194.1709,64.8457-53.1733-43.1694-106.3452-86.3369-159.5181-129.5059h0ZM828.6149,683.3666c.0225.0181.0464.0376.0693.0562.3257.0977.6509.1953.9766.293-.3496-.1167-.6963-.2324-1.0459-.3491h0Z"/></g><path class="cls-5" d="M512.0002,684.4999c-1.4248,0-2.8379-.0195-4.252-.0605-28.0674-.666-55.8018-8.2666-80.1934-21.9805-20.9932-11.8096-38.9902-27.5742-53.4932-46.8555-16.8359-22.376-28.0469-48.7852-32.4199-76.3721-1.4209-8.9287-2.1416-18.0908-2.1416-27.2314,0-14.9033,1.9053-29.6992,5.6621-43.9766,7.0049-26.6602,20.5732-51.5977,39.2383-72.1162,16.377-17.9834,35.9248-32.0586,58.1006-41.835,21.9482-9.6689,45.3301-14.5723,69.499-14.5723,3.5459,0,7.0664.1064,10.4629.3154,24.3555,1.4521,47.6377,7.8945,69.1943,19.1484,24.1211,12.5684,45.2285,30.9678,61.04,53.208,14.1289,19.8809,23.7031,42.0391,28.4551,65.8594,2.2207,11.0762,3.3477,22.5059,3.3477,33.9688,0,16.168-2.2324,32.166-6.6367,47.5488-6.6562,23.2559-17.9395,44.4922-33.5361,63.1172-17.8652,21.3535-40.8789,38.248-66.5527,48.8545-20.873,8.6123-43.002,12.9795-65.7744,12.9795ZM411.8019,600.9609c25.4443,28.6299,61.959,45.0391,100.1982,45.0391,21.3779,0,41.8057-4.8848,60.7148-14.5176,11.209-5.707,21.5576-12.96,30.7578-21.5586,27.0264-25.2529,42.5273-60.9443,42.5273-97.9238,0-73.8877-60.1123-134-134-134s-134,60.1123-134,134c0,24.71,6.7852,48.8594,19.623,69.8359,4.126,6.7461,8.8584,13.1416,14.0664,19.0078.0059.0068.0693.0693.1123.1172Z"/><path class="cls-7" d="M512.0002,341.9999c3.46,0,6.9004.1001,10.3101.3101,24.4902,1.46,47.5801,8.1099,68.1899,18.8696,23.9702,12.4902,44.5903,30.54,60.1602,52.4399,13.5601,19.0801,23.29,41.0903,28.04,64.9004,2.1699,10.8198,3.2998,22.02,3.2998,33.48,0,16.2598-2.2798,31.98-6.54,46.8599-6.6196,23.1299-18.0098,44.2402-33.0498,62.2002-17.5098,20.9297-39.98,37.5698-65.5898,48.1499-19.9702,8.2397-41.8604,12.79-64.8203,12.79-1.3999,0-2.79-.02-4.1797-.0601-28.6699-.6802-55.5801-8.4702-79.04-21.6602-20.6201-11.6001-38.5801-27.3799-52.7202-46.1797-16.29-21.6504-27.52-47.3203-31.9497-75.2603-1.3901-8.7397-2.1104-17.71-2.1104-26.8398,0-14.98,1.9404-29.5103,5.5801-43.3403,7.0601-26.8696,20.5303-51.1299,38.6699-71.0698,15.8901-17.4497,35.3701-31.5801,57.2603-41.23,20.9497-9.23,44.1196-14.3599,68.4897-14.3599M512.0002,648.4999c22.2603,0,43.2803-5.3301,61.8501-14.79,11.4702-5.8403,22.0103-13.25,31.3301-21.96,26.6602-24.9102,43.3198-60.3804,43.3198-99.75,0-75.3804-61.1099-136.5-136.5-136.5s-136.5,61.1196-136.5,136.5c0,26.0601,7.3101,50.4199,19.9902,71.1401,4.2197,6.8999,9.0298,13.3999,14.3799,19.4199,0,.0098.0098.0098.02.02.0103.0098.02.02.0298.0298.0103.0098.0205.02.0303.0303,25,28.1299,61.4399,45.8599,102.0498,45.8599M512.0002,336.9999c-24.5176,0-48.2393,4.9741-70.5054,14.7842-22.499,9.9185-42.3296,24.1968-58.9414,42.4395-18.9365,20.8154-32.7017,46.1147-39.8091,73.1655-3.8115,14.4829-5.7441,29.4927-5.7441,44.6108,0,9.2681.731,18.5625,2.1724,27.625,4.437,27.9858,15.811,54.7793,32.8921,77.4814,14.7114,19.5591,32.9688,35.5508,54.2642,47.5312,24.7476,13.9136,52.8853,21.625,81.373,22.3008,1.4048.0405,2.8594.0615,4.2983.0615,23.1001,0,45.5503-4.4302,66.7275-13.168,26.0464-10.7607,49.3931-27.8989,67.5176-49.5635,15.8223-18.894,27.269-40.4385,34.022-64.0327,4.4673-15.6045,6.7329-31.8335,6.7329-48.2358,0-11.627-1.1431-23.2222-3.3975-34.4634-4.8203-24.1636-14.5332-46.645-28.8667-66.8135-16.0396-22.561-37.4531-41.2256-61.9253-53.9775-21.8682-11.417-45.4893-17.9536-70.2031-19.4268-3.4331-.2114-7.0054-.3188-10.6074-.3188h0ZM413.5129,599.1318c-5.0928-5.7432-9.7207-12.0005-13.7568-18.6006-12.5977-20.585-19.2559-44.2822-19.2559-68.5312,0-72.5093,58.9907-131.5,131.5-131.5s131.5,58.9907,131.5,131.5c0,36.2896-15.2114,71.3154-41.7334,96.0967-9.0288,8.438-19.1846,15.5566-30.1851,21.1577-18.5562,9.4526-38.6021,14.2456-59.5815,14.2456-37.5254,0-73.3589-16.1035-98.3125-44.1812-.0405-.0459-.082-.0908-.124-.1348-.0151-.0156-.0322-.0332-.0508-.0522h0Z"/></svg>